PathFileType	4	(X/Y/Z)	 s05c0402.trc
DataRate	CameraRate	NumFrames	NumMarkers	Units	OrigDataRate	OrigDataStartFrame	OrigNumFrames
200	200	4	50	mm	200	1001	2000
Frame#	Time	racr			lacr			c7			jug			rlel			rdr			llel			ldr			s2			lic			ric			lasi			rasi			rpsi			lpsi			rgt			lgt			rth1			rth2			rth3			rth4			rlfc			rmfc			rsh1			rsh2			rsh3			rsh4			rlmal			rmmal			rcal			rtoe			rmt5			lth1			lth2			lth4			lth3			llfc			lmfc			lsh1			lsh2			lsh3			lsh4			llmal			lmmal			lcal			ltoe			lmt5			SBIKE			LBIKE			RBIKE			
		X1	Y1	Z1	X2	Y2	Z2	X3	Y3	Z3	X4	Y4	Z4	X5	Y5	Z5	X6	Y6	Z6	X7	Y7	Z7	X8	Y8	Z8	X9	Y9	Z9	X10	Y10	Z10	X11	Y11	Z11	X12	Y12	Z12	X13	Y13	Z13	X14	Y14	Z14	X15	Y15	Z15	X16	Y16	Z16	X17	Y17	Z17	X18	Y18	Z18	X19	Y19	Z19	X20	Y20	Z20	X21	Y21	Z21	X22	Y22	Z22	X23	Y23	Z23	X24	Y24	Z24	X25	Y25	Z25	X26	Y26	Z26	X27	Y27	Z27	X28	Y28	Z28	X29	Y29	Z29	X30	Y30	Z30	X31	Y31	Z31	X32	Y32	Z32	X33	Y33	Z33	X34	Y34	Z34	X35	Y35	Z35	X36	Y36	Z36	X37	Y37	Z37	X38	Y38	Z38	X39	Y39	Z39	X40	Y40	Z40	X41	Y41	Z41	X42	Y42	Z42	X43	Y43	Z43	X44	Y44	Z44	X45	Y45	Z45	X46	Y46	Z46	X47	Y47	Z47	X48	Y48	Z48	X49	Y49	Z49	X50	Y50	Z50	
1001	5.0050	818.310253	1248.685772	-146.976254	812.368422	1274.502484	-455.697321	820.227383	1353.514164	-307.184291	747.824732	1198.831631	-308.081010	595.332756	1153.312829	36.978428	689.524549	965.322688	-50.751253	543.895480	1157.296612	-580.159941	676.683380	965.877017	-490.856299	229.659777	1271.619626	-218.669573	346.864419	1280.218908	-374.692432	394.873743	1223.466169	-98.229613	384.965819	1211.726977	-355.422048	408.149874	1157.903087	-137.842093	283.441980	1298.783835	-172.316536	273.790801	1319.799186	-257.046811	290.530093	1107.699948	-88.201216	275.907104	1201.848095	-410.282425	311.333251	995.861143	-76.950116	337.854892	910.673394	-75.496952	318.154224	824.670881	-80.953152	373.610385	912.442114	-84.635782	333.025322	673.787558	-102.715840	319.796749	673.791143	-211.510477	246.812298	607.068338	-75.717008	213.003230	526.117872	-87.641458	146.485394	471.542468	-91.610157	238.653656	510.325615	-111.816184	70.671656	356.029335	-100.089019	99.554516	373.802360	-179.136937	0.129629	379.183675	-146.760377	189.814322	150.981736	-155.835718	104.493096	204.676005	-87.294105	364.730174	1096.146508	-442.452806	443.897855	1063.017433	-448.256232	467.490012	1086.862909	-428.247356	497.222691	989.766675	-456.532973	593.315165	872.027385	-435.449310	586.598531	855.375664	-324.059427	492.164522	796.455557	-451.296253	445.604500	723.122283	-441.255858	366.587879	682.908680	-436.398557	469.839212	699.409272	-423.178875	279.957884	586.883776	-427.301422	319.915650	599.292854	-353.672434	206.881160	578.936556	-383.451473	452.736673	419.544267	-393.482990	345.128549	448.236139	-456.456141	-257.749400	898.023381	-281.048096	-43.589320	85.207293	-474.990872	-51.852190	80.368694	-77.539607	
1002	5.0100	818.366727	1250.371634	-147.942639	811.622982	1275.568194	-456.521302	819.992229	1354.942930	-308.455020	747.631150	1200.050184	-308.416410	595.654485	1153.233893	35.320125	689.601416	965.374760	-51.668883	543.045997	1157.598123	-580.306327	676.356874	966.310879	-490.715318	229.238570	1273.667634	-218.387103	349.008530	1281.008729	-376.180120	394.285105	1226.619335	-97.679435	385.060219	1212.425845	-355.027102	407.907353	1160.377288	-137.168586	283.400286	1301.270591	-172.484832	273.855339	1321.705889	-257.868372	291.217618	1110.071653	-87.585536	275.217098	1202.808024	-409.977715	314.011117	997.554322	-76.285008	342.432845	912.955640	-75.524289	324.692151	826.569164	-80.795607	378.094220	915.575482	-85.357473	340.613409	675.932568	-102.347267	328.256369	676.438153	-211.082729	252.642627	611.352214	-75.369461	216.440266	531.435149	-87.342243	148.270557	478.825238	-91.476191	241.536065	515.007382	-111.686016	68.788704	365.087797	-99.946755	98.336126	382.408419	-179.365390	-1.165236	389.866356	-146.924414	182.208038	156.653703	-155.780881	98.394137	212.792449	-87.532472	362.161773	1095.181573	-442.649317	441.133705	1059.748858	-446.708206	464.699180	1084.167711	-429.743151	492.123083	986.520372	-458.320883	586.385071	867.433607	-437.802481	580.605268	850.777953	-325.760019	486.499748	789.322099	-452.600734	441.918037	714.733069	-441.796166	363.913467	672.718725	-436.754527	466.704281	691.869189	-423.809026	279.382846	575.079697	-426.386357	319.637447	588.893124	-353.202044	206.874822	564.456862	-381.949573	458.972170	415.546824	-395.277431	349.406185	439.500438	-457.052074	-257.965504	898.103409	-281.640629	-43.583741	85.267491	-475.073731	-51.857241	80.430824	-77.546449	
1003	5.0150	818.489946	1252.210887	-148.818939	811.079086	1276.875964	-457.263554	819.791929	1356.536998	-309.446725	747.581285	1201.214970	-308.707690	596.024343	1153.233553	33.715663	689.606391	965.432517	-52.316321	542.341878	1158.081039	-580.319008	676.129398	966.812333	-490.508572	229.484000	1275.703123	-218.777300	349.103097	1281.276924	-376.354944	393.869330	1229.652574	-97.213901	385.109249	1212.901577	-354.664890	407.794274	1162.597273	-136.506461	284.841627	1302.732484	-174.589135	274.034112	1322.600922	-256.945972	292.153633	1112.277372	-86.695349	274.485089	1203.372547	-409.607359	316.888355	999.024960	-75.795820	347.305181	915.167885	-75.569577	331.363765	828.434980	-80.807481	382.823744	918.598658	-85.853136	348.321067	678.058748	-102.053095	336.570042	678.979246	-210.787481	258.776840	615.458822	-75.095836	220.334011	536.680037	-87.095880	150.563485	486.158124	-91.163750	244.820009	519.477024	-111.647251	67.477829	374.305011	-99.744827	97.762224	391.202512	-179.438219	-1.858723	400.988741	-146.745706	175.114331	163.022873	-155.664945	92.852531	221.309457	-87.696352	359.462205	1093.705367	-442.789567	437.614101	1056.870271	-447.604956	461.799783	1080.936740	-431.148468	487.015294	982.720353	-459.460857	579.132104	862.114700	-439.679383	575.018198	845.657875	-327.524284	480.816865	781.532290	-453.823497	438.091012	705.693205	-442.259355	361.255060	661.680940	-436.723533	463.491506	683.619052	-424.027112	278.792358	562.933968	-425.260380	319.205340	577.890764	-352.458852	207.323042	549.526141	-381.103072	464.574736	410.745060	-395.918970	353.855411	430.202887	-457.314593	-257.832818	898.109314	-281.718212	-43.573907	85.233756	-475.098870	-51.837966	80.455862	-77.565856	
1004	5.0200	818.599974	1254.259027	-149.509921	810.705707	1278.388045	-457.883342	819.574581	1358.300662	-310.380563	747.598913	1202.815706	-308.907473	596.437585	1153.393910	32.241529	689.677662	965.512058	-52.821079	541.752095	1158.742870	-580.111984	675.986403	967.266263	-490.361610	231.714675	1276.443994	-219.479509	349.217234	1281.332494	-376.682374	393.654742	1232.211774	-96.944374	385.127286	1213.118956	-354.262225	407.739017	1164.660285	-135.846561	284.725096	1304.691493	-175.281761	273.382706	1322.679191	-253.883583	293.045270	1114.098554	-85.906548	273.735965	1203.577528	-409.306390	320.018221	1000.566820	-75.459145	352.272043	917.434771	-75.576176	338.217804	830.341998	-80.837257	387.614152	921.640628	-86.139836	356.079518	680.257600	-101.840739	344.559703	681.435423	-210.679452	265.316755	619.416061	-74.861836	224.469635	541.904013	-86.809952	153.264826	493.297468	-90.714643	248.272691	523.938861	-111.832351	66.594827	383.607381	-99.392216	97.531229	399.888821	-179.282819	-2.057379	412.158735	-146.461071	168.527068	169.497027	-155.672056	87.881447	230.034752	-87.833501	356.627490	1092.203450	-443.068936	433.939885	1053.767244	-448.508971	458.774443	1077.423929	-432.420631	481.767749	978.568122	-460.474957	571.909623	856.347946	-440.333930	568.699572	840.139449	-328.890445	474.703680	772.753198	-454.256986	434.184822	696.159421	-442.470211	358.534509	650.080751	-436.398008	460.194763	674.896981	-423.963647	278.754705	550.371494	-424.503213	318.553073	566.453036	-351.698478	207.657265	534.556472	-380.465963	469.680595	405.018418	-395.811246	358.380667	420.757008	-457.311028	-257.813923	898.088077	-281.827704	-43.581334	85.191956	-475.109568	-51.812426	80.414381	-77.600178	
